# xmcd CD database file
# Copyright (C) 1993-1998 Ti Kan
#
# Track frame offsets:
# 182
# 24867
# 45102
# 68515
# 92530
# 122817
# 145065
# 159035
#
# Disc length: 2369 seconds
# Revision: 0
# Processed by: cddbd v1.4b41PL1 Copyright (c) Steve Scherf et al.
# Submitted via: CDSpectrumPro v3.4.340
#
DISCID=4d093f08
DTITLE=Marvin Sease - Marvin Sease - Breakfast
DYEAR=1900
DGENRE=
TTITLE0=Love Is A Game
TTITLE1=Same Old Woman
TTITLE2=I Belong To You
TTITLE3=Lately
TTITLE4=I Can't Forget You Girl
TTITLE5=Condom On Your Tongue
TTITLE6=I Ate You For My Breakfast
TTITLE7=Tell Me
EXTD=
EXTT0=
EXTT1=
EXTT2=
EXTT3=
EXTT4=
EXTT5=
EXTT6=
EXTT7=
PLAYORDER=
